<svg xmlns="http://www.w3.org/2000/svg" data-name="Layer 1" viewBox="0 0 756.3 596.9">
    <path d="M744 245.3c-18.6-12.5-67.3-17.9-102.7-8.3-2-35.3-20.1-65-53.4-91l-12.3-8.2-8.2 12.4a141.5 141.5 0 0 0-20.6 86.8c2 18.2 8.3 38.8 20.6 53.7-46.1 26.7-88.6 20.7-276.8 20.7H.1c-.9 42.5 6 124.2 58 190.8 5.7 7.3 12 14.4 18.8 21.3 42.2 42.3 106.1 73.3 201.6 73.4 145.6.1 270.4-78.6 346.4-269 25 .4 90.9 4.5 123.1-57.9.8-1 8.2-16.5 8.2-16.5l-12.3-8.3Zm-554.3-39H108v81.8h81.7v-81.7Zm105.5 0h-81.7v81.8h81.7v-81.7Zm105.6 0H319v81.8h81.7v-81.7Zm105.5 0h-81.7v81.8h81.7v-81.7Zm-422.2 0H2.4v81.8h81.7v-81.7Zm105.6-103.1H108v81.7h81.7v-81.7Zm105.5 0h-81.7v81.7h81.7v-81.7Zm105.6 0H319v81.7h81.7v-81.7Zm0-103.2H319v81.7h81.7V0Z"
          style="fill:#1d63ed;stroke-width:0"/>
</svg>